<svg width="1150" height="1024" viewBox="0 0 1150 1024" fill="none" xmlns="http://www.w3.org/2000/svg">
<path d="M559.232 378.5V196L365.572 0L23.7351 352.5C-3.26715 380 -11.2637 437.5 21.2324 480.5L559.232 1024V821L131.732 415.5L202.232 342.5L559.232 696V514L295.732 251L362.732 184L559.232 378.5Z" fill="white"/>
<path d="M590 378.5V196L783.66 0L1125.5 352.5C1152.5 380 1160.49 437.5 1128 480.5L590 1024V821L1017.5 415.5L946.999 342.5L590 696V514L853.499 251L786.5 184L590 378.5Z" fill="white"/>
</svg>
